<?xml version="1.0" standalone="no"?>
<!DOCTYPE svg PUBLIC "-//W3C//DTD SVG 20010904//EN"
 "http://www.w3.org/TR/2001/REC-SVG-20010904/DTD/svg10.dtd">
<svg version="1.0" xmlns="http://www.w3.org/2000/svg"
 width="160.000000pt" height="160.000000pt" viewBox="0 0 160.000000 160.000000"
 preserveAspectRatio="xMidYMid meet">
<metadata>
Created by potrace 1.14, written by Peter Selinger 2001-2017
</metadata>
<g transform="translate(0.000000,160.000000) scale(0.100000,-0.100000)"
fill="#000000" stroke="none">
<path d="M160 1056 l0 -384 256 -256 256 -256 384 0 384 0 0 384 0 384 -256
256 -256 256 -384 0 -384 0 0 -384z m987 92 l243 -243 0 -347 0 -348 -347 0
-348 0 -242 242 -243 243 0 347 0 348 347 0 348 0 242 -242z"/>
<path d="M319 1243 c-1 -5 -1 -88 -1 -186 0 -146 3 -182 16 -202 24 -37 59
-56 115 -62 45 -5 51 -3 52 13 0 11 2 31 3 47 1 21 -3 27 -19 27 -11 0 -31 7
-43 16 -19 13 -22 24 -22 90 l0 74 39 0 c32 0 39 4 43 23 2 12 1 33 -2 47 -5
21 -12 25 -43 25 l-37 -1 0 48 0 48 -50 0 c-27 0 -50 -3 -51 -7z"/>
<path d="M711 1232 c-48 -26 -71 -74 -70 -147 0 -54 3 -62 29 -82 58 -46 60
-44 60 55 0 109 10 142 44 142 30 0 44 -35 42 -104 -1 -50 9 -63 49 -60 11 1
27 2 36 3 14 1 16 11 14 60 -3 67 -17 92 -69 127 -42 29 -89 31 -135 6z"/>
<path d="M530 1225 c-18 -22 -19 -48 -2 -67 29 -34 92 -12 92 32 0 42 -63 67
-90 35z"/>
<path d="M520 953 l0 -163 50 0 50 0 -2 162 -3 162 -47 1 -48 1 0 -163z"/>
<path d="M640 966 c0 -65 17 -85 116 -132 57 -27 104 -58 123 -79 17 -19 32
-35 34 -35 10 0 -1 89 -14 107 -25 36 -76 73 -136 99 -32 14 -73 37 -90 50
l-33 25 0 -35z"/>
<path d="M640 845 c0 -62 17 -82 106 -125 46 -21 104 -58 129 -81 l44 -41 -4
47 c-4 53 -23 87 -63 112 -15 10 -29 20 -32 23 -11 11 -51 30 -64 30 -8 0 -37
15 -65 34 l-51 35 0 -34z"/>
<path d="M1196 781 c-25 -27 -14 -69 19 -77 50 -12 83 24 62 67 -16 31 -57 37
-81 10z"/>
<path d="M939 763 c-5 -121 4 -360 13 -371 36 -42 121 -52 170 -19 l33 23 3
135 c3 155 -2 166 -76 171 -44 3 -49 11 -43 71 2 14 -6 17 -48 17 -49 0 -51
-1 -52 -27z m123 -283 c-2 -22 -8 -40 -13 -40 -11 0 -12 163 -1 174 9 10 19
-81 14 -134z"/>
<path d="M1229 672 l-47 -3 -1 -160 -1 -159 49 0 50 0 3 128 c2 70 1 143 -2
162 -5 35 -5 35 -51 32z"/>
<path d="M825 548 c1 -106 -8 -144 -36 -151 -37 -10 -49 18 -49 109 0 91 3 86
-60 86 -11 0 -24 0 -30 -1 -18 -2 -12 -133 8 -170 41 -77 159 -95 220 -35 30
30 43 100 33 173 -1 12 -68 81 -78 81 -5 0 -8 -42 -8 -92z"/>
</g>
</svg>
