<svg xmlns="http://www.w3.org/2000/svg" xmlns:xlink="http://www.w3.org/1999/xlink"><defs><clipPath id="clip0"><path fill="#fff" d="M0 0h24v24H0z"/></clipPath></defs><symbol id="icon__cross" viewBox="0 0 24 24"><path d="M18.53 6.53a.75.75 0 00-1.06-1.06L12 10.94 6.53 5.47a.75.75 0 00-1.06 1.06L10.94 12l-5.47 5.47a.75.75 0 101.06 1.06L12 13.06l5.47 5.47a.75.75 0 101.06-1.06L13.06 12l5.47-5.47z"/></symbol><symbol id="icon__diploma" viewBox="0 0 24 24"><path d="M9 5.92a.75.75 0 000 1.5h6a.75.75 0 000-1.5H9zM7 9.92a.75.75 0 100 1.5h10a.75.75 0 100-1.5H7z"/><path fill-rule="evenodd" clip-rule="evenodd" d="M6.193 20.616H5a2.74 2.74 0 01-2.74-2.741V4.5A2.74 2.74 0 015 1.76h14a2.74 2.74 0 012.74 2.74v13.375a2.74 2.74 0 01-2.74 2.74h-1.193l-2.408 2.409a.74.74 0 01-1.048 0L12 20.673l-2.351 2.35a.74.74 0 01-1.048 0l-2.408-2.407zM3.741 4.5c0-.696.563-1.26 1.259-1.26h14c.696 0 1.26.564 1.26 1.26v13.375c0 .696-.564 1.26-1.26 1.26h-1.193l-2.331-2.332a3.49 3.49 0 00-6.952 0l-2.33 2.331H5c-.696 0-1.26-.563-1.26-1.259V4.5zm9.68 11.204a2.01 2.01 0 00-3.43 1.415v.012a2.01 2.01 0 103.43-1.427zm-5.873 4.171l1.283-1.284a3.485 3.485 0 001.535 1.62l-1.241 1.241-1.577-1.577zm7.62-1.284a3.49 3.49 0 01-1.535 1.62l1.242 1.241 1.577-1.577-1.283-1.284z"/></symbol><symbol id="icon__download" viewBox="0 0 24 24"><path d="M12 3.247a.75.75 0 01.75.75v8.86l2.277-2.277a.75.75 0 011.06 1.06l-3.55 3.552a.748.748 0 01-.895.136l-.015-.01a.756.756 0 01-.163-.125L7.912 11.64a.75.75 0 111.06-1.06l2.278 2.276v-8.86a.75.75 0 01.75-.75zM4.747 16.446a.75.75 0 00-1.5 0 4.308 4.308 0 004.307 4.307h8.892a4.307 4.307 0 004.307-4.307.75.75 0 10-1.5 0 2.807 2.807 0 01-2.807 2.807H7.554a2.808 2.808 0 01-2.807-2.807z"/></symbol><symbol id="icon__file_pdf" viewBox="0 0 24 24"><path d="M6 3.771C6 3.014 6.622 2.4 7.38 2.4h8.22L21 7.8v12.429c0 .757-.614 1.371-1.372 1.371H7.38c-.758 0-1.38-.614-1.38-1.371V3.77z" fill="#E1E4EB"/><path d="M15.6 2.4L21 7.8h-3.772c-.852 0-1.628-.776-1.628-1.629V2.4z" fill="#A9AEB8"/><rect x="3" y="11.4" width="15" height="7.2" rx="1" fill="#FF2047"/><path fill-rule="evenodd" clip-rule="evenodd" d="M6.398 16.604a.15.15 0 01-.15-.15v-2.908a.15.15 0 01.15-.15h1.137c.26 0 .476.032.65.096a.73.73 0 01.394.32c.088.147.132.345.132.594 0 .211-.037.398-.112.56a.822.822 0 01-.364.378c-.169.09-.39.135-.666.135h-.592v.975a.15.15 0 01-.15.15h-.43zM7.4 14.917h-.423v-.94h.506c.174 0 .354.046.434.22a.603.603 0 01-.018.508c-.078.144-.241.212-.5.212zM9.412 16.604a.15.15 0 01-.15-.15v-2.908a.15.15 0 01.15-.15h1.126c.245 0 .462.035.653.105.19.071.35.175.481.311.132.136.233.304.302.502.069.196.103.421.103.675 0 .226-.03.438-.092.634a1.34 1.34 0 01-.29.513 1.316 1.316 0 01-.525.345 2.255 2.255 0 01-.796.123h-.962zm.59-.591h.37c.23 0 .414-.046.549-.136a.755.755 0 00.294-.369c.06-.155.09-.332.09-.528 0-.149-.018-.284-.054-.405a.826.826 0 00-.162-.313.689.689 0 00-.276-.203 1.022 1.022 0 00-.403-.071h-.407v2.024z" fill="#fff"/><path d="M12.803 16.604h.424a.15.15 0 00.15-.15v-1.126h1.153a.15.15 0 00.15-.15v-.294a.15.15 0 00-.15-.15h-1.153v-.722h1.225a.15.15 0 00.15-.15v-.316a.15.15 0 00-.15-.15h-1.8a.15.15 0 00-.15.15v2.908c0 .083.068.15.15.15z" fill="#fff"/></symbol><symbol id="icon__file_zip" viewBox="0 0 40 40"><path d="M10 6.286A2.298 2.298 0 0112.3 4H26l9 9v20.714A2.286 2.286 0 0132.714 36H12.3a2.298 2.298 0 01-2.3-2.286V6.286z" fill="#E1E4EB"/><path d="M26 4l9 9h-6.286C27.294 13 26 11.706 26 10.286V4z" fill="#A9AEB8"/><rect x="5" y="19" width="25" height="12" rx="1" fill="#F2C94C"/><path d="M11.679 27.674a.25.25 0 01-.25-.25v-.314a.25.25 0 01.052-.152l.368-.477c.157-.202.315-.406.472-.611.16-.208.308-.398.443-.57l1.51-1.95h-2.516a.25.25 0 01-.25-.25v-.524a.25.25 0 01.25-.25h3.925a.25.25 0 01.25.25v.496a.25.25 0 01-.054.155l-.546.693c-.195.25-.39.499-.585.746l-1.556 1.984h2.532a.25.25 0 01.25.25v.524a.25.25 0 01-.25.25h-4.045zM17.233 27.674a.25.25 0 01-.25-.25v-.587-2.722-.934-.605a.25.25 0 01.25-.25h.76a.25.25 0 01.25.25v4.848a.25.25 0 01-.25.25h-.76zM19.715 27.674a.25.25 0 01-.25-.25v-.587-2.722-.934-.605a.25.25 0 01.25-.25H21.609c.433 0 .795.054 1.085.161.292.108.51.285.656.533.147.245.221.575.221.99a2.2 2.2 0 01-.187.934 1.37 1.37 0 01-.608.63c-.28.15-.65.225-1.11.225h-1.139v-.938h.858c.215 0 .391-.029.529-.086a.591.591 0 00.303-.266.973.973 0 00.102-.473.857.857 0 00-.072-.375.534.534 0 00-.183-.225.722.722 0 00-.26-.109 1.185 1.185 0 00-.28-.033h-.844v4.13a.25.25 0 01-.25.25h-.715z" fill="#fff"/><path d="M18 4h2v2h-2V4zM20 8V6h2v2h-2zM20 10h-2V8h2v2zM20 10h2v2h-2v-2z" fill="#A9AEB8"/><path fill-rule="evenodd" clip-rule="evenodd" d="M18 18v-5h4v5h-4zm1-2v-2h2v2h-2z" fill="#A9AEB8"/></symbol><symbol id="icon__location" viewBox="0 0 24 24"><path fill-rule="evenodd" clip-rule="evenodd" d="M10.056 7.055a2.75 2.75 0 113.89 3.889 2.75 2.75 0 01-3.89-3.889zm1.06 1.061a1.25 1.25 0 111.768 1.768 1.25 1.25 0 01-1.768-1.768z"/><path fill-rule="evenodd" clip-rule="evenodd" d="M6.274 12.461c.33.624.717 1.225 1.128 1.789h-.96a2.75 2.75 0 00-2.609 1.882l-.666 1.999a2.75 2.75 0 002.608 3.619h12.45a2.75 2.75 0 002.608-3.62l-.666-1.999a2.75 2.75 0 00-2.609-1.881h-.96c.41-.564.798-1.165 1.128-1.789.595-1.125 1.024-2.368 1.024-3.628 0-3.655-3.042-6.583-6.75-6.583S5.25 5.178 5.25 8.833c0 1.26.43 2.503 1.024 3.628zM12 3.75c-2.92 0-5.25 2.296-5.25 5.083 0 .928.32 1.924.85 2.928.512.967 1.197 1.9 1.901 2.728a.716.716 0 01.042.05l.026.03A25.008 25.008 0 0012 17.016a25.017 25.017 0 002.431-2.449c.728-.846 1.44-1.809 1.968-2.807.53-1.004.851-2 .851-2.928 0-2.787-2.33-5.083-5.25-5.083zm-5.558 12h2.167a26.747 26.747 0 002.847 2.774l.055.045.015.012.006.005a.75.75 0 00.936 0L12 18c.468.586.469.585.469.585l.006-.004.014-.012a13.101 13.101 0 00.255-.212 26.76 26.76 0 002.647-2.607h2.167a1.25 1.25 0 011.186.855l.667 2a1.25 1.25 0 01-1.186 1.645H5.775a1.25 1.25 0 01-1.186-1.645l.667-2c.17-.51.647-.855 1.186-.855zM12 18l-.468.586L12 18z"/></symbol><symbol id="icon__mail" viewBox="0 0 24 24"><path fill-rule="evenodd" clip-rule="evenodd" d="M4.8 4.25a2.543 2.543 0 00-2.547 2.68.761.761 0 00-.003.07v10A2.756 2.756 0 005 19.75h14A2.756 2.756 0 0021.75 17V7a.75.75 0 00-.003-.07A2.543 2.543 0 0019.2 4.25H4.8zm9.132 7.494l-.043.028c-1.149.736-2.525.737-3.675.003l-.074-.051a.76.76 0 00-.072-.05l-5.82-3.976c-.357-.293-.498-.589-.498-.898 0-.586.464-1.05 1.05-1.05h14.4c.586 0 1.05.464 1.05 1.05 0 .312-.14.62-.466 1.042l-5.826 3.885a.74.74 0 00-.026.017zm.306 1.555l4.939 4.938a1.243 1.243 0 01-.177.013H5c-.06 0-.119-.004-.177-.013l4.973-4.972a4.81 4.81 0 004.442.034zm6 3.878c.008-.058.012-.117.012-.177V9.335l-4.713 3.142 4.7 4.7zm-16.475 0l4.748-4.75L3.75 9.175V17c0 .06.004.119.013.177z"/></symbol><symbol id="icon__menu" viewBox="0 0 24 24"><path d="M5.497 7.248a.75.75 0 000 1.5h13.005a.75.75 0 000-1.5H5.497zM4.748 12a.75.75 0 01.75-.75h13.005a.75.75 0 010 1.5H5.498a.75.75 0 01-.75-.75zM4.748 16.002a.75.75 0 01.75-.75h13.005a.75.75 0 010 1.5H5.498a.75.75 0 01-.75-.75z"/></symbol><symbol id="icon__phone" viewBox="0 0 24 24"><path fill-rule="evenodd" clip-rule="evenodd" d="M8.644 3.78a2.75 2.75 0 00-3.888 0l-.652.652c-.927.926-1.3 2.25-1.057 3.54.526 2.78 2.127 5.773 4.668 8.313 2.54 2.54 5.533 4.142 8.314 4.668 1.289.243 2.613-.13 3.54-1.057l.65-.65a2.75 2.75 0 000-3.89l-1.173-1.172a2.25 2.25 0 00-3.182 0l-.902.904a.026.026 0 01-.006.004 11.915 11.915 0 01-3.57-2.478 11.89 11.89 0 01-2.476-3.57.029.029 0 01.004-.006l.82-.818c.936-.936.99-2.36.084-3.266L8.644 3.78zM5.816 4.84a1.25 1.25 0 011.768 0l1.174 1.174c.266.267.32.74-.085 1.146l-.819.817a1.5 1.5 0 00-.322 1.66 13.385 13.385 0 002.794 4.037 13.408 13.408 0 004.036 2.796 1.5 1.5 0 001.66-.322l.904-.904a.75.75 0 011.06 0l1.173 1.173a1.25 1.25 0 010 1.768l-.651.65c-.555.556-1.37.8-2.2.644-2.446-.462-5.175-1.897-7.533-4.254-2.357-2.358-3.792-5.088-4.254-7.532-.157-.832.088-1.645.643-2.2l.652-.653z"/></symbol><symbol id="icon__quote" viewBox="0 0 24 24"><circle cx="12" cy="12" r="11" fill="#fff" stroke="#F3F5FA" stroke-width="2"/><path d="M7.023 11.42A1.983 1.983 0 017 11.144v-.278c0-.542.19-.985.57-1.33C7.952 9.18 8.47 9 9.124 9c.746 0 1.325.225 1.735.675.411.45.617 1.038.617 1.765 0 .437-.076.867-.228 1.29a4.28 4.28 0 01-.662 1.19c-.275.371-.617.708-1.028 1.012a5.463 5.463 0 01-1.37.735l-.959-.735c.426-.264.754-.568.982-.912.244-.357.365-.708.365-1.052 0-.357-.137-.674-.41-.952-.26-.291-.64-.49-1.142-.595zm5.525 0a1.985 1.985 0 01-.023-.277v-.278c0-.542.19-.985.57-1.33.381-.356.899-.535 1.553-.535.746 0 1.325.225 1.736.675.41.45.616 1.038.616 1.765 0 .437-.076.867-.228 1.29a4.28 4.28 0 01-.662 1.19 4.86 4.86 0 01-1.028 1.012 5.464 5.464 0 01-1.37.735l-.959-.735c.427-.264.754-.568.982-.912.244-.357.366-.708.366-1.052 0-.357-.138-.674-.412-.952-.258-.291-.639-.49-1.141-.595z" fill="#5286EC"/></symbol><symbol id="icon__sections_communications" viewBox="0 0 24 24"><path d="M6.72.96c-1.32 0-2.4 1.08-2.4 2.4 0 1.32 1.08 2.4 2.4 2.4 1.32 0 2.4-1.08 2.4-2.4 0-1.32-1.08-2.4-2.4-2.4zm10.56 0c-1.32 0-2.4 1.08-2.4 2.4 0 1.32 1.08 2.4 2.4 2.4.933 0 1.809-.547 2.502-1.052.694-.504 1.197-1.009 1.197-1.009a.48.48 0 000-.678s-.503-.505-1.197-1.01C19.09 1.508 18.213.96 17.28.96zm-10.56.96c.8 0 1.44.64 1.44 1.44 0 .8-.64 1.44-1.44 1.44-.8 0-1.44-.64-1.44-1.44 0-.8.64-1.44 1.44-1.44zm10.56 0c.507 0 1.311.413 1.938.868.393.286.491.399.68.572-.189.173-.287.286-.68.572-.627.455-1.431.868-1.938.868-.8 0-1.44-.64-1.44-1.44 0-.8.64-1.44 1.44-1.44zm-12 4.32v.657c-1.945.49-3.36 1.947-3.36 3.663v4.8c0 .196.12.373.302.446l1.408.562.79 6.252c.03.24.234.42.476.42h3.648a.48.48 0 00.477-.42l.789-6.252 1.408-.562a.481.481 0 00.302-.446v-4.8c0-1.716-1.415-3.172-3.36-3.663V6.24l-1.44.72 1.372.686-1.372 3.875-1.372-3.875L6.72 6.96l-1.44-.72zm12 .48c-1.294 0-2.475.405-3.35 1.086-.875.68-1.45 1.66-1.45 2.754v4.8c0 .196.12.373.302.445l1.408.563.79 6.252c.03.24.234.42.476.42h3.648a.48.48 0 00.477-.42l.789-6.252 1.408-.563a.48.48 0 00.302-.445v-4.8c0-1.095-.575-2.074-1.45-2.754-.875-.681-2.056-1.086-3.35-1.086zm0 .96l.96.96.679-.679c.423.152.804.355 1.121.602.509.396.854.882 1 1.417l-1.538.615a.48.48 0 00-.302.445v1.92h-3.84v-1.92a.48.48 0 00-.302-.445L13.52 9.98c.146-.535.491-1.021 1-1.417.317-.247.698-.45 1.121-.602l.679.679.96-.96zm-12.752.528l1.74 4.912a.48.48 0 00.905 0l1.739-4.912c.992.52 1.648 1.377 1.648 2.352v4.475l-1.369.546a.48.48 0 00-.298.386l-.772 6.113H5.319l-.772-6.112a.481.481 0 00-.298-.387l-1.369-.546V10.56c0-.975.656-1.831 1.648-2.352zm8.912 2.774l.96.383v4.053l-.96-.383v-4.053zm7.68 0v4.053l-.96.383v-4.053l.96-.383zm-5.76 2.938h3.84v2.4c0 .8-.64 1.44-1.44 1.44h-.96c-.8 0-1.44-.64-1.44-1.44v-2.4zm.037 4.335c.396.289.878.465 1.403.465h.96c.525 0 1.007-.176 1.403-.465l-.482 3.825h-2.802l-.482-3.825z"/></symbol><symbol id="icon__sections_economy" viewBox="0 0 24 24"><path d="M21.09 1.09a.909.909 0 00-.908.91c0 .133.034.256.085.37l-3.636 5.084h-.086a.914.914 0 00-.497.143L12.91 6.034a.911.911 0 00-1.818.057.94.94 0 00.014.142L7.781 8.875a.903.903 0 00-.326-.057.905.905 0 00-.895.767l-3.097 1.25a.898.898 0 00-.554-.199.909.909 0 100 1.819c.458 0 .833-.34.895-.782l3.097-1.236c.154.121.344.2.554.2.502 0 .909-.407.909-.91a.94.94 0 00-.015-.142l3.324-2.642c.101.04.212.057.327.057.181 0 .355-.05.497-.142l3.14 1.562a.911.911 0 001.817-.056.888.888 0 00-.085-.37l3.637-5.085c.028.002.056 0 .085 0a.909.909 0 100-1.818zM19.274 7v15.909h3.636V6.999h-3.636zm.909.909H22v14.09h-1.818V7.91zm-10 3.182v11.818h3.636V11.091h-3.636zm.909.909h1.818v10h-1.818V12zm3.636 1.364v9.545h3.637v-9.545h-3.637zm.91.909h1.817V22h-1.818v-7.727zm-10 .454v8.182h3.636v-8.182H5.636zm.908.91h1.819V22H6.545v-6.364zm-5.454.908v6.364h3.636v-6.364H1.091zm.909.91h1.818V22H2v-4.546z"/></symbol><symbol id="icon__sections_globe" viewBox="0 0 24 24"><path d="M12 .96C6.814.96 2.459 4.547 1.278 9.372a.48.48 0 00-.06.26A11.052 11.052 0 00.96 12c0 6.091 4.948 11.04 11.04 11.04 1.709 0 3.328-.39 4.773-1.085a.48.48 0 00.186-.094A11.063 11.063 0 0023.04 12c0-3.836-1.963-7.217-4.937-9.196a.48.48 0 00-.173-.11A10.976 10.976 0 0012 .96zm0 .96c1.889 0 3.65.527 5.16 1.429l-.324.79a.48.48 0 00.015.396l.325.65-.715.716a.482.482 0 00-.09.124l-.051.102-.05-.102a.48.48 0 00-.43-.265H14.4a.48.48 0 00-.34.14l-.96.96-.96.96a.48.48 0 000 .68l1.101 1.1h-.281a.48.48 0 00-.34.14l-.96.96-.819.82h-.761a.48.48 0 00-.48.48v.96c0 .265.215.48.48.48h.628l-1.286.515a.48.48 0 00-.251.23l-.96 1.92a.48.48 0 00-.037.331l.48 1.92a.48.48 0 00.314.34l1.44.48a.48.48 0 00.304 0l1.217-.406 1.031.687v1.663c0 .127.05.25.14.34l.495.493A10.073 10.073 0 011.92 12c0-.703.072-1.39.21-2.052l.73-.301.765.382a.48.48 0 00.69-.362l.438-3.065.527-.175v.293a.48.48 0 00.695.43l1.818-.91h.847c.16 0 .31-.08.4-.214l.96-1.44a.48.48 0 00.03-.48l-.48-.96a.48.48 0 00-.645-.215l-.265.133V2.88a.48.48 0 00-.139-.337A10.074 10.074 0 0112 1.92zM7.066 3.36h.614v.48a.48.48 0 00.695.43l.53-.266.141.281-.663.995H7.68a.48.48 0 00-.215.05l-1.225.614v-.102l.001-.008.825-2.474zm10.909.532C20.462 5.726 22.08 8.668 22.08 12c0 .25-.012.495-.03.74l-.098-.106a.48.48 0 00-.468-.14l-1.92.48a.48.48 0 00-.364.466v.48a.48.48 0 00.265.43l.531.265-.674 1.347-.387.194-1.175-2.35v-.366a.48.48 0 00-.48-.48h-1.094l-.228-.683 1.96-.784a.66.66 0 00.044-.018l.008-.004a.422.422 0 00.032-.017l.004-.002h.002a.48.48 0 00-.088-.869l-.905-.452a.48.48 0 00-.644.214l-.391.782-1.252.417a.48.48 0 00-.277.241l-.11.22-.502-.751a.48.48 0 00-.55-.19l-.951.317.001-.002.82-.819h1.168a.48.48 0 00.527-.296l.905-1.358a.48.48 0 00-.06-.605l-.48-.48a.48.48 0 10-.678.678l.201.202-.417.625-1.166-1.166.62-.62.82-.82h.945l.341.682.006.013a.451.451 0 00.05.08.507.507 0 00.06.065.464.464 0 00.117.075.467.467 0 00.134.04h.005a.485.485 0 00.06.005h.003a.48.48 0 00.427-.263l.002-.002.446-.891.904-.905a.48.48 0 00.09-.554l-.382-.765.168-.408zM5.828 4.04L5.38 5.38l-1.212.404a.48.48 0 00-.174.103A10.104 10.104 0 015.828 4.04zM3.89 6.026a.48.48 0 00-.046.146l-.386 2.7-.364-.181a.48.48 0 00-.398-.014l-.25.103c.337-1 .83-1.923 1.444-2.754zm6.707 1.655a.48.48 0 00-.493.63l.147.441a.417.417 0 00-.031.029l-.48.48a.48.48 0 00.339.819h.96a.478.478 0 00.455-.632l-.48-1.44a.48.48 0 00-.418-.327zm2.646 4.41l.757 1.135a.48.48 0 00.828-.051l.25-.5.305.917a.48.48 0 00.08.144l-1.01.168-2.276-.91a.481.481 0 00-.356 0l-.23.092.668-.666.984-.33zm8.197 1.403l.445.482a10.06 10.06 0 01-3.871 6.102l.64-1.115 1.437-2.396c0-.002 0-.003.002-.004a.486.486 0 00.015-.028l.96-1.92a.48.48 0 00-.214-.644l-.44-.22 1.026-.257zM12 13.957l2.222.888a.48.48 0 00.257.028l2.53-.421 1.282 2.563a.48.48 0 00.27.238l-.733 1.22a.354.354 0 00-.004.009l-1.498 2.614a9.984 9.984 0 01-1.617.614l-.789-.789V19.2a.48.48 0 00-.214-.4l-1.44-.96a.48.48 0 00-.418-.056l-1.288.43-1.038-.346-.373-1.492.799-1.598L12 13.956z"/></symbol><symbol id="icon__sections_it" viewBox="0 0 24 24"><path d="M1.44 1.44C.65 1.44 0 2.09 0 2.88v19.68h24V2.88c0-.79-.65-1.44-1.44-1.44H1.44zm0 .96h21.12c.272 0 .48.208.48.48v1.44H.96V2.88c0-.272.208-.48.48-.48zM.96 5.28h22.08V21.6H.96V5.28zm12.915 1.905a.567.567 0 00-.06.015.481.481 0 00-.345.3L9.15 18.06a.484.484 0 10.9.36l4.32-10.56a.479.479 0 00-.495-.675zm-6.225 2.88a.44.44 0 00-.045.015.473.473 0 00-.165.06l-3.36 1.92a.482.482 0 000 .84l3.36 1.92a.483.483 0 10.48-.84l-2.625-1.5 2.625-1.5a.48.48 0 00-.27-.915zm8.58.015a.482.482 0 00-.15.9l2.625 1.5-2.625 1.5a.483.483 0 10.48.84l3.36-1.92a.482.482 0 000-.84l-3.36-1.92a.483.483 0 00-.33-.06z"/></symbol><symbol id="icon__sections_law" viewBox="0 0 24 24"><path d="M12 .96c-.79 0-1.44.65-1.44 1.44v.748c-.653-.43-1.414-.904-2.295-1.108a5.176 5.176 0 00-1.296-.12c-.423.01-.834.056-1.218.101-.344.043-.657.077-.942.1L4.8 2.1l-.01.022c-.348.027-.648.034-.841-.01a.481.481 0 10-.217.936c.211.048.43.06.652.063L.922 11.518l.072.18S2.079 14.4 4.8 14.4c2.72 0 3.804-2.702 3.804-2.702l.073-.18-3.485-8.466c.223-.026.442-.05.673-.078.752-.09 1.522-.152 2.182 0 .857.2 1.707.81 2.513 1.322V20.64H7.68c-1.056 0-1.92.864-1.92 1.92v.48h12.48v-.48c0-1.056-.864-1.92-1.92-1.92h-2.88V4.967c.932-.105 1.931-.266 2.768-.071.676.155 1.342.52 1.978.894.241.144.474.281.706.414l-3.57 8.674.074.18s1.083 2.702 3.804 2.702c2.72 0 3.804-2.702 3.804-2.702l.073-.18-3.414-8.297c.128.049.255.096.388.126.259.062.516-.1.576-.358a.477.477 0 00-.358-.576c-.377-.088-.945-.426-1.594-.808-.65-.384-1.395-.808-2.25-1.005-.606-.143-1.217-.143-1.793-.098-.427.034-.823.089-1.192.134V2.4c0-.79-.65-1.44-1.44-1.44zm0 .96c.27 0 .48.21.48.48v18.24h-.96V2.4c0-.27.21-.48.48-.48zm-7.2 2.7l2.642 6.42H2.156L4.8 4.62zm14.4 3.36l2.642 6.42h-5.284L19.2 7.98zM2.263 12h5.074c-.383.589-1.165 1.44-2.537 1.44-1.373 0-2.154-.851-2.537-1.44zm14.4 3.36h5.074c-.383.589-1.164 1.44-2.537 1.44-1.372 0-2.154-.851-2.537-1.44zM7.68 21.6h8.64c.347 0 .594.21.763.48H6.917c.169-.27.416-.48.763-.48z"/></symbol><symbol id="icon__sections_management" viewBox="0 0 24 24"><g clip-path="url(#clip0)"><path d="M12.96 2.88c-2.05 0-3.623.844-4.496 2.085a4.234 4.234 0 00-.49.917L7.68 5.28h-.3c-1.673 0-2.912.677-3.563 1.682-.594.919-.631 2.068-.262 3.142-.16.22-.278.494-.233.878.051.433.165.754.345.99.08.105.196.109.295.172.064.351.157.702.3.992.086.177.178.334.276.47.031.044.086.074.116.111.003.383.007.715-.023 1.11-.088.216-.304.417-.705.62-.416.21-.975.402-1.541.652s-1.151.555-1.612 1.046C.308 17.638 0 18.33 0 19.2v.48h3.473a4.21 4.21 0 00-.113.96v.48h17.28v-.48c0-.343-.041-.662-.113-.96h3.503l-.03-.508c-.052-.872-.401-1.555-.885-2.04-.484-.484-1.082-.788-1.657-1.031-.578-.246-1.139-.435-1.557-.643-.401-.2-.613-.394-.701-.606V13.77c.034-.037.082-.064.118-.105.109-.131.22-.287.324-.463.167-.281.28-.634.36-.99.081-.053.119-.054.218-.163.193-.21.386-.555.443-1.024a1.194 1.194 0 00-.218-.863c.098-.238.218-.459.246-.748a4.225 4.225 0 00-.111-1.428c-.127-.488-.352-.97-.735-1.347-.31-.303-.748-.483-1.24-.556l-.358-.803h-.31c-.698 0-1.405.09-2.067.306a3.388 3.388 0 00-.647-.988c-.366-.375-.877-.608-1.451-.689l-.516-1.029h-.296zm-.283.99l.467.93h.296c.473 0 .804.17 1.093.467.289.296.514.733.649 1.215.137.482.187 1.003.161 1.438-.028.435-.154.786-.232.887l-.265.341.308.298s.221.25.191.5c-.045.385-.182.584-.294.706-.113.122-.167.137-.167.137l-.265.109-.03.284c-.035.342-.217.814-.43 1.193a3.78 3.78 0 01-.316.478c-.095.118-.2.191-.148.163l-.255.135v1.517a4.024 4.024 0 01-.386.293c-.319.211-.733.399-1.054.399-.32 0-.735-.188-1.054-.4a4.034 4.034 0 01-.386-.292v-1.517l-.255-.135c.053.028-.054-.045-.15-.163a3.996 3.996 0 01-.313-.478c-.214-.379-.396-.851-.431-1.193l-.03-.284-.265-.11s-.054-.014-.167-.136c-.112-.122-.249-.32-.294-.705v-.002c-.03-.251.19-.499.19-.499l.241-.232-.137-.306c-.52-1.174-.384-2.42.299-3.39.645-.915 1.8-1.575 3.429-1.648zm4.97 2.42l.306.687h.311c.424 0 .689.131.908.349.221.215.384.536.478.9.094.363.116.763.084 1.096-.032.332-.14.602-.183.659l-.257.337.302.295s.129.16.112.3c-.032.277-.124.408-.195.487-.073.079-.088.077-.088.077l-.26.11-.03.284c-.025.236-.16.573-.318.841a2.96 2.96 0 01-.234.336c-.07.083-.146.13-.09.1l-.253.135v1.213c-.169.135-.534.384-.96.384h-.48v1.393c-.497-.212-.973-.414-1.365-.617-.555-.289-.898-.585-1.035-.902V13.63c.058-.061.137-.106.195-.18.135-.168.27-.373.4-.601.219-.39.373-.86.464-1.328.1-.058.156-.067.293-.214.236-.253.476-.665.545-1.247a1.414 1.414 0 00-.256-1.016c.142-.315.234-.664.258-1.063a5.265 5.265 0 00-.127-1.481c.452-.133.962-.186 1.476-.208zm-10.539.004l.302.62h.315a4.547 4.547 0 00.26 2.094 1.392 1.392 0 00-.283 1.051c.07.582.31.994.546 1.247.135.147.191.156.29.214.093.469.248.938.468 1.328.127.228.264.433.399.601.058.074.137.119.195.18v1.125c-.137.32-.482.615-1.037.906-.39.203-.868.405-1.363.617V14.88h-.48c-.598 0-.964-.255-1.11-.384.01-.327.007-.63.007-.953v-.289l-.25-.135c.07.04.005.004-.05-.075a2.27 2.27 0 01-.193-.33 2.936 2.936 0 01-.271-.879l-.042-.398-.365-.03c-.004-.003-.002-.001-.013-.016-.04-.051-.119-.203-.156-.52-.02-.17.043-.242.052-.251l.33-.208-.165-.377c-.391-.896-.332-1.838.13-2.55.425-.658 1.252-1.116 2.484-1.19zm-1.725 9.184c.253.143.583.281.986.334l-.076.874c-.233.11-.462.234-.689.365l-.603-1.16a2 2 0 00.382-.413zm13.073.036c.073.109.159.206.255.294l-.405 1.185a9.585 9.585 0 00-.599-.313l-.076-.87c.322-.053.602-.17.825-.296zm-8.248.088c.073.054.121.101.206.157.277.186.628.375 1.025.48l-.354 3.921h-.197c-.25-.64-.997-2.674-1.063-4.181.14-.115.272-.236.383-.377zm3.585 0c.11.14.241.262.382.377-.066 1.507-.814 3.542-1.063 4.181h-.197l-.354-3.92a3.466 3.466 0 001.025-.48c.085-.057.133-.104.207-.158zm5.746.744c.493.236 1.034.422 1.542.638.528.225 1.012.485 1.353.828.238.237.39.544.492.908h-2.77c-.146-.26-.317-.5-.514-.71a4.294 4.294 0 00-.51-.47l.407-1.194zm-15.365.038l.632 1.213c-.158.13-.31.266-.449.418-.195.21-.365.446-.51.705H1.04c.077-.371.209-.679.432-.917.317-.337.78-.598 1.3-.825.457-.202.944-.38 1.402-.594zm10.925.176c.638.32 1.35.587 2.023.9.71.33 1.362.709 1.817 1.2.36.39.567.887.659 1.5H14.15c.309-.814.796-2.244.948-3.6zm-6.198.002c.152 1.354.639 2.784.948 3.598H4.404c.09-.61.297-1.104.657-1.492.457-.494 1.11-.872 1.818-1.202.672-.314 1.384-.584 2.022-.904z"/></g></symbol><symbol id="icon__sections_others" viewBox="0 0 24 24"><path d="M5.76 1.44c-2.38 0-4.32 1.94-4.32 4.32 0 2.38 1.94 4.32 4.32 4.32 2.38 0 4.32-1.94 4.32-4.32 0-2.38-1.94-4.32-4.32-4.32zm9.12.48a.48.48 0 00-.48.48v6.72c0 .264.216.48.48.48h6.72a.48.48 0 00.48-.48V2.4a.48.48 0 00-.48-.48h-6.72zm-9.12.48a3.352 3.352 0 013.36 3.36 3.352 3.352 0 01-3.36 3.36A3.352 3.352 0 012.4 5.76 3.352 3.352 0 015.76 2.4zm9.6.48h5.76v5.76h-5.76V2.88zm.508 10.56a.483.483 0 00-.461.337l-1.464 4.748a.48.48 0 00.165.523l3.84 2.934a.484.484 0 00.584 0l3.84-2.934a.48.48 0 00.166-.523l-1.465-4.748a.483.483 0 00-.461-.337h-4.744zm-10.13.48a.487.487 0 00-.396.242l-3.838 6.72a.482.482 0 000 .48.482.482 0 00.416.238H9.6a.482.482 0 00.418-.718l-3.84-6.72a.483.483 0 00-.44-.242zm10.483.48h4.038l1.264 4.087-3.283 2.51-3.283-2.51L16.22 14.4zm-10.461.967l3.013 5.273H2.75l3.011-5.273z"/></symbol><symbol id="icon__sections_projects" viewBox="0 0 24 24"><path d="M2.4.96C1.08.96 0 2.04 0 3.36v11.52c0 1.32 1.08 2.4 2.4 2.4h17.76V2.88H4.703C4.473 1.796 3.55.96 2.4.96zm0 .96c.8 0 1.44.64 1.44 1.44v9.614a2.375 2.375 0 00-1.44-.494c-.541 0-1.037.188-1.44.494V3.36c0-.8.64-1.44 1.44-1.44zm2.4 1.92h14.4v12.48H2.4c-.8 0-1.44-.64-1.44-1.44 0-.8.64-1.44 1.44-1.44.8 0 1.44.64 1.44 1.44h.96V3.84zm16.32.96a.48.48 0 100 .96v12.48H4.32c-.361 0-.684-.136-.941-.361a.48.48 0 10-.633.722c.417.365.968.599 1.574.599h17.76V4.8h-.96zm-7.2 1.44l1.073 1.073-2.51 2.375-2.4-2.52-3.388 3.203.66.698 2.692-2.546 2.4 2.52 3.226-3.05L16.8 9.12V6.24h-2.88zm9.12.48a.48.48 0 100 .96v12.48H6.24c-.361 0-.684-.136-.941-.361a.48.48 0 10-.633.722c.417.365.968.599 1.574.599H24V6.72h-.96zM6.72 12.96v.96H16.8v-.96H6.72z"/></symbol><symbol id="icon__sections_social" viewBox="0 0 24 24"><path d="M9.383 1.44C4.783 1.44.96 4.78.96 8.983c0 2.018.902 3.85 2.333 5.201l-.045.222a2.78 2.78 0 01-1.587 1.65c-.273.097-.5.245-.626.504a.747.747 0 00.139.799c.439.44 1.009.397 1.425.4 1.565.02 3.41-.802 4.528-1.36l.013-.006.383-.221-.147-.045.017.004c.623.144 1.275.189 1.916.189 4.045 0 7.525-2.417 8.293-5.895v-.002c.104-.463.158-.945.158-1.44 0-4.198-3.778-7.543-8.377-7.543zm0 .96c4.136 0 7.417 2.962 7.417 6.583 0 .426-.047.838-.135 1.234-.656 2.97-3.692 5.143-7.356 5.143-.592 0-1.175-.045-1.696-.165l-.21-.062-.711.409C5.63 16.072 3.8 16.815 2.61 16.8c-.163 0-.178-.032-.292-.045.682-.334 1.47-.94 1.845-2.053l.007-.025.173-.81-.212-.187C2.756 12.478 1.92 10.81 1.92 8.983 1.92 5.366 5.246 2.4 9.383 2.4zM5.28 5.76v.96h8.16v-.96H5.28zm0 2.4v.96h8.16v-.96H5.28zm13.337 2.014c-.024.153-.041.307-.075.46-.038.164-.086.325-.135.488 2.21.854 3.666 2.573 3.666 4.484 0 1.37-.713 2.65-2.01 3.609l-.261.193.08.315c.26.992 1.167 1.504 1.795 1.845-.996.135-3.16-.09-4.247-1.376l-.182-.218-.277.057c-.437.086-.944.129-1.551.129-2.985 0-5.41-1.157-6.352-2.888-.39-.007-.754-.033-1.095-.075.89 2.36 3.753 3.923 7.447 3.923.553 0 1.035-.034 1.468-.1 1.06 1.073 2.786 1.538 4.185 1.538.092 0 .184-.002.272-.006.812-.037 1.34-.225 1.575-.556a.617.617 0 00.097-.5c-.08-.342-.395-.511-.832-.745-.43-.233-.994-.539-1.258-.994 1.344-1.11 2.105-2.603 2.105-4.151 0-2.355-1.76-4.457-4.415-5.432zM5.28 10.56v.96h5.76v-.96H5.28zm12.008 2.88c-.24.337-.505.66-.796.96h2.228v-.96h-1.432zm-2.605 2.4a9.83 9.83 0 01-2.158.96h6.195v-.96h-4.037z"/></symbol><symbol id="icon__sections_struct" viewBox="0 0 24 24"><path d="M12.306 1.92c-1.096 0-1.931.38-2.363 1.06-.389.61-.395 1.38-.215 2.169a.931.931 0 00-.122.585c.03.273.097.49.225.667.047.065.13.069.194.117.064.255.132.519.26.69.089.12.18.222.264.304.003.004.008.005.011.009v.476c-.032.072-.085.14-.252.234-.185.105-.46.211-.76.357-.3.147-.63.338-.9.653s-.457.755-.487 1.293a.48.48 0 00.479.506h6.72a.48.48 0 00.48-.506c-.03-.538-.218-.978-.488-1.293-.27-.316-.6-.506-.9-.653-.3-.146-.575-.253-.76-.358-.167-.094-.22-.16-.252-.233v-.482l.015-.012c.083-.084.173-.186.26-.306.123-.17.188-.425.252-.672.063-.048.147-.051.194-.116.128-.177.196-.394.226-.668.02-.183.003-.354-.06-.513-.009-.02-.046-.032-.056-.054.134-.55.177-1.135-.035-1.673-.203-.514-.727-.866-1.381-.993l-.098-.272a.48.48 0 00-.451-.316zm-.317 1.013l.04.111a.48.48 0 00.451.316c.573 0 .739.18.862.493.124.314.111.825-.031 1.285a.48.48 0 00.123.484c0 .01 0 0-.002.014-.014.136-.035.163-.04.175a.48.48 0 00-.28.435c0 .058-.066.238-.175.389a1.68 1.68 0 01-.163.192c-.048.048-.108.085-.052.052a.48.48 0 00-.242.417v.832a.48.48 0 00.026.156c.132.384.433.624.713.783.28.158.565.263.813.384.248.12.451.251.591.414.042.049.044.157.077.215H9.3c.033-.058.035-.166.077-.215.14-.163.343-.292.591-.413.249-.121.534-.227.813-.385.28-.159.581-.399.713-.783a.48.48 0 00.026-.156v-.832a.48.48 0 00-.244-.418c.049.028-.01-.007-.058-.054a1.578 1.578 0 01-.162-.186c-.108-.147-.176-.32-.176-.4a.48.48 0 00-.279-.435c-.005-.012-.027-.039-.042-.174-.002-.019.002-.013.005-.019a.48.48 0 00.12-.47c-.206-.717-.159-1.287.07-1.645.192-.303.596-.498 1.235-.562zM3.84 6.24a.48.48 0 00-.48.48v4.8a.48.48 0 10.96 0V7.2h3.84a.48.48 0 100-.96H3.84zm12 0a.48.48 0 100 .96h3.84v4.32a.48.48 0 10.96 0v-4.8a.48.48 0 00-.48-.48h-4.32zM4.146 12.96c-1.096 0-1.931.38-2.363 1.06-.389.61-.395 1.38-.215 2.169a.931.931 0 00-.122.585c.03.273.097.49.225.667.047.065.13.069.194.117.065.255.132.519.26.69.089.12.18.222.264.304.003.004.007.005.011.009v.476c-.032.072-.085.14-.252.234-.185.105-.46.212-.76.357-.3.146-.63.337-.9.653S.03 21.036 0 21.574a.48.48 0 00.479.506H7.2a.48.48 0 00.48-.506c-.03-.538-.218-.978-.487-1.293-.27-.316-.6-.506-.9-.652-.3-.147-.576-.254-.76-.359-.168-.094-.22-.16-.253-.233v-.482l.015-.012c.083-.084.173-.186.26-.306.123-.17.188-.425.252-.672.063-.048.147-.051.194-.116.128-.177.196-.394.226-.668.02-.183.003-.354-.06-.512-.009-.022-.046-.033-.056-.055.134-.55.177-1.135-.035-1.673-.203-.514-.727-.866-1.381-.993l-.098-.272a.48.48 0 00-.451-.316zm8.16 0c-1.096 0-1.931.38-2.363 1.06-.389.61-.395 1.38-.215 2.169a.931.931 0 00-.122.585c.03.273.097.49.225.667.047.065.13.069.194.117.064.255.132.519.26.69.089.12.18.222.264.304.003.004.008.005.011.009v.476c-.032.072-.085.14-.252.234-.185.105-.46.212-.76.357-.3.146-.63.337-.9.653s-.457.755-.487 1.293a.48.48 0 00.479.506h6.72a.48.48 0 00.48-.506c-.03-.538-.218-.978-.488-1.293-.27-.316-.6-.506-.9-.652-.3-.147-.575-.254-.76-.359-.167-.094-.22-.16-.252-.233v-.482l.015-.012c.083-.084.173-.186.26-.306.123-.17.188-.425.252-.672.063-.048.147-.051.194-.116.128-.177.196-.394.226-.668.02-.183.003-.354-.06-.512-.009-.022-.046-.033-.056-.055.134-.55.177-1.135-.035-1.673-.203-.514-.727-.866-1.381-.993l-.098-.272a.48.48 0 00-.451-.316zm8.16 0c-1.096 0-1.931.38-2.363 1.06-.389.61-.395 1.38-.215 2.169a.93.93 0 00-.122.585c.03.273.097.49.225.667.047.065.13.069.194.117.065.255.132.519.26.69.089.12.18.222.264.304.003.004.008.005.011.009v.476c-.032.072-.085.14-.252.234-.185.105-.46.212-.76.357-.3.146-.63.337-.9.653s-.457.755-.487 1.293a.48.48 0 00.479.506h6.72a.48.48 0 00.48-.506c-.03-.538-.218-.978-.488-1.293-.27-.316-.6-.506-.9-.652-.3-.147-.575-.254-.76-.359-.167-.094-.22-.16-.252-.233v-.482l.015-.012c.083-.084.173-.186.26-.306.123-.17.188-.425.252-.672.063-.048.147-.051.194-.116.128-.177.196-.394.226-.668.02-.183.003-.354-.06-.512-.009-.022-.046-.033-.056-.055.134-.55.177-1.135-.035-1.673-.203-.514-.727-.866-1.381-.993l-.098-.272a.48.48 0 00-.451-.316zM3.829 13.973l.04.111a.48.48 0 00.451.316c.573 0 .739.18.863.493.123.314.11.825-.032 1.285a.48.48 0 00.122.484v.014c-.015.136-.036.163-.042.175a.48.48 0 00-.28.435c0 .058-.065.238-.173.389a1.685 1.685 0 01-.164.192c-.048.048-.109.085-.052.052a.48.48 0 00-.242.417v.832a.48.48 0 00.026.156c.132.384.433.624.713.783.28.158.564.263.813.384.248.12.451.251.591.414.042.049.044.157.077.215h-5.4c.033-.058.035-.166.077-.215.14-.163.343-.292.591-.413.249-.121.534-.227.813-.385.28-.159.581-.399.713-.783a.48.48 0 00.026-.156v-.832a.48.48 0 00-.244-.417c.049.027-.01-.008-.058-.055a1.588 1.588 0 01-.162-.187c-.109-.146-.176-.32-.176-.399a.48.48 0 00-.279-.435c-.005-.012-.027-.039-.042-.174-.002-.019.002-.013.005-.019a.48.48 0 00.12-.47c-.206-.717-.159-1.287.07-1.645.192-.303.596-.498 1.235-.562zm8.16 0l.04.111a.48.48 0 00.451.316c.573 0 .739.18.862.493.124.314.111.825-.031 1.285a.48.48 0 00.123.484c0 .01 0 0-.002.014-.014.136-.035.163-.04.175a.48.48 0 00-.28.435c0 .058-.066.238-.175.389a1.676 1.676 0 01-.163.192c-.048.048-.108.085-.052.052a.48.48 0 00-.242.417v.832a.48.48 0 00.026.156c.132.384.433.624.713.783.28.158.565.263.813.384.248.12.451.251.591.414.042.049.044.157.077.215H9.3c.033-.058.035-.166.077-.215.14-.163.343-.292.591-.413.249-.121.534-.227.813-.385.28-.159.581-.399.713-.783a.48.48 0 00.026-.156v-.832a.48.48 0 00-.244-.417c.049.027-.01-.008-.058-.055a1.579 1.579 0 01-.162-.187c-.108-.146-.176-.32-.176-.399a.48.48 0 00-.279-.435c-.005-.012-.027-.039-.042-.174-.002-.019.002-.013.005-.019a.48.48 0 00.12-.47c-.206-.717-.159-1.287.07-1.645.192-.303.596-.498 1.235-.562zm8.16 0l.04.111a.48.48 0 00.451.316c.573 0 .739.18.863.493.123.314.11.825-.032 1.285a.48.48 0 00.122.484v.014c-.015.136-.036.163-.042.175a.48.48 0 00-.28.435c0 .058-.065.238-.174.389a1.676 1.676 0 01-.163.192c-.048.048-.108.085-.052.052a.48.48 0 00-.242.417v.832a.48.48 0 00.026.156c.132.384.433.624.713.783.28.158.564.263.813.384.248.12.451.251.591.414.042.049.044.157.077.215h-5.4c.033-.058.035-.166.077-.215.14-.163.343-.292.591-.413.249-.121.534-.227.813-.385.28-.159.581-.399.713-.783a.48.48 0 00.026-.156v-.832a.48.48 0 00-.244-.417c.049.027-.01-.008-.058-.055a1.579 1.579 0 01-.162-.187c-.108-.146-.176-.32-.176-.399a.48.48 0 00-.279-.435c-.005-.012-.027-.039-.042-.174-.002-.019.002-.013.005-.019a.48.48 0 00.12-.47c-.206-.717-.159-1.287.07-1.645.192-.303.596-.498 1.235-.562z"/></symbol><symbol id="icon__sections_teacher" viewBox="0 0 24 24"><path d="M5.76.96c-1.32 0-2.4 1.08-2.4 2.4 0 1.32 1.08 2.4 2.4 2.4 1.32 0 2.4-1.08 2.4-2.4 0-1.32-1.08-2.4-2.4-2.4zm8.16 0v.96h-4.8v.96h12.96v12.48H9.6v.96h4.08l-2.64 5.28H12l2.4-4.8 2.4 4.8h.96l-2.64-5.28h7.44c.264 0 .48-.216.48-.48V2.4a.48.48 0 00-.48-.48h-7.68V.96h-.96zm-8.16.96c.8 0 1.44.64 1.44 1.44 0 .8-.64 1.44-1.44 1.44-.8 0-1.44-.64-1.44-1.44 0-.8.64-1.44 1.44-1.44zM3.6 6.24A2.646 2.646 0 00.96 8.88v5.91a.32.32 0 000 .06v.03a.467.467 0 00.015.135A1.444 1.444 0 002.4 16.32c.169 0 .328-.036.48-.09v5.13c0 .922.758 1.68 1.68 1.68.469 0 .894-.197 1.2-.51.306.313.731.51 1.2.51.923 0 1.68-.758 1.68-1.68V9.12h5.28c.79 0 1.44-.65 1.44-1.44 0-.78-.634-1.423-1.41-1.44H7.2a.477.477 0 00-.435.27L5.76 8.52 4.755 6.51a.477.477 0 00-.435-.27H3.6zm0 .96h.42l1.305 2.61a.482.482 0 00.87 0L7.5 7.2h6.465c.25.022.435.225.435.48 0 .272-.208.48-.48.48H8.16a.48.48 0 00-.48.48v12.72c0 .403-.317.72-.72.72a.714.714 0 01-.72-.645v-.12-4.995a.477.477 0 00-.525-.495.533.533 0 00-.06.015.48.48 0 00-.375.48v4.95a.322.322 0 000 .06v.105a.714.714 0 01-.72.645.713.713 0 01-.72-.72V10.08a.479.479 0 10-.96 0v4.8c0 .272-.208.48-.48.48a.473.473 0 01-.48-.45v-.03a.36.36 0 000-.09V8.88c0-.934.746-1.68 1.68-1.68z"/></symbol><symbol id="icon__sertificate" viewBox="0 0 24 24"><path d="M4.997 3.746c-.691 0-1.25.56-1.25 1.251v14.006c0 .691.559 1.25 1.25 1.25H13a.75.75 0 010 1.5H4.997a2.75 2.75 0 01-2.75-2.75V4.997a2.75 2.75 0 012.75-2.75h13.006a2.75 2.75 0 012.75 2.75v3.001a.75.75 0 01-1.5 0V4.997c0-.691-.56-1.25-1.25-1.25H4.997z"/><path fill-rule="evenodd" clip-rule="evenodd" d="M15.252 17.743a4.252 4.252 0 115.502 0v4.261a.75.75 0 01-1.086.671l-1.665-.833-1.666.833a.75.75 0 01-1.085-.67v-4.262zM15.25 14.5a2.752 2.752 0 115.503 0 2.752 2.752 0 01-5.503 0zm1.5 4.065v2.225l.916-.458a.75.75 0 01.67 0l.916.458v-2.225a4.252 4.252 0 01-2.501 0z"/><path d="M6.998 6.248a.75.75 0 000 1.5h9.004a.75.75 0 000-1.5H6.998zM6.248 11a.75.75 0 01.75-.75H11a.75.75 0 010 1.5H6.998a.75.75 0 01-.75-.75zM6.998 14.251a.75.75 0 000 1.5h3.001a.75.75 0 000-1.5H6.998z"/></symbol><symbol id="icon__shevron_down" viewBox="0 0 24 24"><path fill-rule="evenodd" clip-rule="evenodd" d="M16.78 9.47a.75.75 0 010 1.06l-4 4a.75.75 0 01-1.06 0l-4-4a.75.75 0 111.06-1.06l3.47 3.47 3.47-3.47a.75.75 0 011.06 0z" fill="#4B4D52"/></symbol><symbol id="icon__shevron_right" viewBox="0 0 24 24"><path fill-rule="evenodd" clip-rule="evenodd" d="M9.72 7.47a.75.75 0 011.06 0l4 4a.75.75 0 010 1.06l-4 4a.75.75 0 11-1.06-1.06L13.19 12 9.72 8.53a.75.75 0 010-1.06z"/></symbol><symbol id="icon__socials_fb" viewBox="0 0 24 24"><path d="M13.393 20v-7.3h2.447l.367-2.84h-2.814V8.04c0-.82.227-1.373 1.427-1.373h1.507V4.113A20.339 20.339 0 0014.113 4c-2.173 0-3.66 1.333-3.66 3.76v2.1H8v2.84h2.453V20h2.94z"/></symbol><symbol id="icon__socials_ig" viewBox="0 0 24 24"><path d="M12 5.44c2.133 0 2.387 0 3.233.047 2.167.1 3.18 1.126 3.28 3.28.04.846.047 1.1.047 3.233s0 2.393-.047 3.233c-.1 2.154-1.106 3.18-3.28 3.28-.846.04-1.093.047-3.233.047s-2.387 0-3.233-.047c-2.174-.1-3.18-1.133-3.28-3.28-.04-.846-.047-1.093-.047-3.233s0-2.387.047-3.233c.1-2.154 1.113-3.18 3.28-3.28.846-.034 1.1-.047 3.233-.047zM12 4c-2.173 0-2.447 0-3.3.047-2.9.133-4.52 1.746-4.667 4.666C4 9.553 4 9.827 4 12s0 2.447.047 3.333C4.18 18.24 5.793 19.853 8.713 20H12c2.173 0 2.447 0 3.3-.047 2.9-.133 4.52-1.746 4.667-4.666C20 14.447 20 14.173 20 12s0-2.447-.047-3.3c-.133-2.9-1.746-4.52-4.666-4.667C14.447 4 14.173 4 12 4zm0 3.893a4.107 4.107 0 100 8.214 4.107 4.107 0 000-8.214zm0 6.774a2.667 2.667 0 110-5.334 2.667 2.667 0 010 5.334zm4.273-7.9a.96.96 0 10-.013 1.92.96.96 0 00.013-1.92z"/></symbol><symbol id="icon__socials_tg" viewBox="0 0 24 24"><path fill-rule="evenodd" clip-rule="evenodd" d="M15.185 20.343a1.655 1.655 0 002.602-.987l2.64-12.447c.253-1.186-.912-2.174-2.04-1.74L2.872 11.153c-1.122.433-1.064 2.034.079 2.391l3.699 1.154 1.26 4.151a1.416 1.416 0 002.343.604l1.608-1.565 3.324 2.455zm-2.96-4.052l-1.526-1.127a.093.093 0 01-.01-.145l2.457-2.217 1.46-1.318a.75.75 0 00-1.004-1.114l-1.461 1.318-2.457 2.217a1.593 1.593 0 00.124 2.466l.83.614-1.332 1.297-1.336-4.399a.746.746 0 00-.496-.499l-3.437-1.072 14.89-5.743a.045.045 0 01.01-.003h.002a.038.038 0 00.022.019v.012l-2.642 12.447a.154.154 0 01-.242.093l-3.822-2.823a.75.75 0 00-.03-.023z"/></symbol><symbol id="icon__socials_vk" viewBox="0 0 24 24"><path d="M19.895 15.258c0-.04-.033-.074-.053-.107a8.102 8.102 0 00-1.597-1.844c-.354-.34-.58-.568-.668-.668a.668.668 0 01-.113-.668c.208-.39.459-.755.748-1.089l.541-.708c.915-1.343 1.336-2.158 1.23-2.518l-.074-.094a.455.455 0 00-.26-.14 1.336 1.336 0 00-.535 0h-2.398a.28.28 0 00-.168 0h-.187a.44.44 0 00-.174.234 13.535 13.535 0 01-.881 1.964c-.207.347-.394.668-.568.895-.128.199-.274.387-.434.561-.097.103-.202.2-.314.287a.327.327 0 01-.22.094l-.14-.034a.561.561 0 01-.188-.207.862.862 0 01-.093-.327c0-.127 0-.24-.034-.334-.033-.094 0-.227 0-.4V9.8v-.668-.588-.46c.013-.125.013-.25 0-.375a1.249 1.249 0 00-.086-.267.468.468 0 00-.174-.2.909.909 0 00-.28-.114 5.143 5.143 0 00-1.123-.107 5.384 5.384 0 00-2.004.2c-.121.063-.23.146-.32.248-.103.12-.117.187-.04.2a.982.982 0 01.707.36l.054.101c.056.12.094.249.113.38.042.201.069.404.08.609.027.349.027.7 0 1.048 0 .288-.053.515-.08.668-.02.136-.058.269-.113.395l-.087.167v.04a.67.67 0 01-.227.046.528.528 0 01-.288-.12 2.444 2.444 0 01-.34-.32 4.253 4.253 0 01-.408-.575 9.921 9.921 0 01-.467-.868l-.134-.24c-.08-.155-.2-.382-.34-.669-.14-.287-.275-.581-.388-.862a.488.488 0 00-.2-.267h-.04a.487.487 0 00-.134-.067.935.935 0 00-.194-.06l-2.318-.02a.568.568 0 00-.474.147v.047a.234.234 0 000 .134c.001.078.02.156.053.227.328.781.668 1.543 1.09 2.27.42.73.727 1.337 1.021 1.758.294.42.581.868.882 1.262.3.395.5.668.594.762.074.087.152.17.234.247l.207.2c.183.176.38.337.588.482.278.199.566.384.862.554.345.193.713.34 1.095.44.398.112.81.16 1.223.141h.955a.668.668 0 00.448-.187l.033-.04a.737.737 0 00.06-.154.863.863 0 000-.233 2.8 2.8 0 01.054-.668c.03-.149.08-.292.147-.428.047-.09.106-.172.174-.247a.708.708 0 01.146-.12h.067a.528.528 0 01.468.133c.192.137.365.299.514.481.154.194.348.408.568.668.179.196.376.375.588.535l.167.1c.136.079.282.14.434.18.15.057.31.073.468.047h2.13a.989.989 0 00.495-.107.388.388 0 00.207-.227.589.589 0 000-.287.948.948 0 00-.087-.274z"/></symbol><symbol id="icon__socials_wa" viewBox="0 0 24 24"><path fill-rule="evenodd" clip-rule="evenodd" d="M11.572 8.675a1.841 1.841 0 01-.16 2.313c.221.289.473.574.748.85l.002.002c.275.275.561.527.85.747a1.841 1.841 0 012.328-.155l.001.001c.412.295.785.56 1.132.804a1.833 1.833 0 01.225 2.804l-.348.346c-1.02 1.014-2.356 1.023-3.566.593-1.308-.466-2.455-1.364-3.426-2.336-1.026-1.026-1.912-2.232-2.338-3.428-.43-1.21-.421-2.547.593-3.566l.006-.005.355-.355a1.832 1.832 0 012.802.246c.242.349.504.724.795 1.138zM9.034 8.35a.333.333 0 01.51.042c.243.35.506.728.8 1.145a.342.342 0 01-.033.434l-.392.395a.75.75 0 00-.177.815c.254.642.88 1.24 1.358 1.717l.002.002c.494.495 1.035.94 1.591 1.293a.75.75 0 00.984-.16l.358-.35a.342.342 0 01.433-.03c.416.297.791.563 1.14.81.166.118.189.36.037.51-.131.129-.272.253-.395.39-.459.426-1.095.512-1.964.203-.91-.323-1.93-1.046-2.87-1.985-.813-.814-1.592-1.77-1.982-2.868-.318-.893-.217-1.54.24-2.002l.001-.002.36-.359z"/><path fill-rule="evenodd" clip-rule="evenodd" d="M12.037 2.456c-5.22 0-9.468 4.244-9.469 9.463a9.45 9.45 0 001.109 4.454l-1.156 4.222a.75.75 0 00.913.924l4.341-1.139a9.466 9.466 0 004.258 1.012h.004c5.22 0 9.466-4.246 9.468-9.465a9.411 9.411 0 00-2.77-6.695 9.416 9.416 0 00-6.698-2.776zM4.068 11.92c0-4.39 3.576-7.964 7.969-7.964a7.915 7.915 0 015.636 2.336 7.912 7.912 0 012.332 5.635c-.002 4.39-3.577 7.965-7.968 7.965h-.004c-1.33 0-2.64-.334-3.809-.97a.75.75 0 00-.548-.066l-3.365.882.893-3.263a.75.75 0 00-.073-.573 7.953 7.953 0 01-1.063-3.982z"/></symbol><symbol id="icon__time" viewBox="0 0 24 24"><path d="M9.25 2a.75.75 0 01.75-.75h4a.75.75 0 010 1.5h-4A.75.75 0 019.25 2zM12.75 9a.75.75 0 00-1.5 0v4a.75.75 0 001.5 0V9z"/><path fill-rule="evenodd" clip-rule="evenodd" d="M18.695 7.366L20 6.06l.47.47a.75.75 0 101.06-1.061l-2-2a.75.75 0 10-1.06 1.06l.47.47-1.306 1.305a8.75 8.75 0 101.061 1.06zm-11.821.507a7.25 7.25 0 1110.253 10.254A7.25 7.25 0 016.874 7.873z"/></symbol><symbol id="icon__video" viewBox="0 0 24 24"><path d="M1.6 4.8A1.6 1.6 0 000 6.4v11.2a1.6 1.6 0 001.6 1.6h13.6a1.6 1.6 0 001.6-1.6V6.4a1.6 1.6 0 00-1.6-1.6H1.6zm21.6 1.6a.8.8 0 00-.558.226L18.4 10.4v3.2l4.26 3.789.012.01A.8.8 0 0024 16.8V7.2a.8.8 0 00-.8-.8z"/></symbol><symbol id="icon__warning" viewBox="0 0 24 24"><path d="M11 16.253a1 1 0 112-.005 1 1 0 01-2 .005zM12.75 7.5a.75.75 0 00-1.5 0v5a.75.75 0 001.5 0v-5z"/><path fill-rule="evenodd" clip-rule="evenodd" d="M8.828 21.75a2.75 2.75 0 01-1.944-.806l-3.828-3.828a2.75 2.75 0 01-.806-1.944V8.828c0-.73.29-1.429.806-1.944l3.828-3.828a2.75 2.75 0 011.944-.806h6.344c.729 0 1.428.29 1.944.806l3.828 3.828a2.75 2.75 0 01.806 1.944v6.344c0 .73-.29 1.429-.806 1.944l-3.828 3.828a2.75 2.75 0 01-1.944.806H8.828zM7.944 4.116a1.25 1.25 0 01.884-.366h6.344c.33 0 .649.132.883.366l3.828 3.828c.235.235.367.553.367.884v6.344c0 .33-.132.65-.367.884l-3.828 3.828a1.25 1.25 0 01-.883.366H8.828c-.33 0-.65-.132-.884-.366l-3.828-3.828a1.25 1.25 0 01-.366-.884V8.828c0-.33.132-.65.366-.884l3.828-3.828z"/></symbol><symbol id="ino__logo" viewBox="0 0 304 40"><path d="M200.189 8.915l4.355-5.868h1.263v8.366h-1.648V5.675l-4.294 5.738h-1.324V3.047h1.648v5.868zM215.32 3.047v8.366h-1.648v-3.57h-3.874v3.57h-1.66V3.047h1.66V6.43h3.874V3.047h1.648zM217.1 7.171c0-.51.092-1.013.276-1.508.193-.503.469-.95.83-1.343s.802-.711 1.324-.955c.521-.243 1.114-.365 1.78-.365.786 0 1.463.169 2.033.507.577.337 1.006.777 1.287 1.32l-1.275.86a2.048 2.048 0 00-.409-.59 1.995 1.995 0 00-.517-.389 2.192 2.192 0 00-.578-.2c-.2-.047-.397-.07-.589-.07-.417 0-.782.082-1.095.247a2.439 2.439 0 00-.77.648c-.2.26-.353.558-.457.895a3.246 3.246 0 00.024 2.062c.12.338.289.637.505.896.225.259.49.467.794.624.313.157.654.236 1.023.236.192 0 .393-.024.601-.07.209-.048.405-.123.59-.225.192-.102.369-.231.529-.389.16-.164.289-.36.385-.589l1.359.766a2.54 2.54 0 01-.589.837 3.704 3.704 0 01-.854.6c-.313.166-.65.291-1.011.378-.361.086-.713.13-1.058.13a3.7 3.7 0 01-1.672-.378 4.467 4.467 0 01-1.312-.978 4.846 4.846 0 01-.854-1.378c-.2-.519-.3-1.045-.3-1.579zM232.65 4.473h-2.731v6.94h-1.648v-6.94h-2.73V3.047h7.109v1.426zM235.875 8.915l4.355-5.868h1.263v8.366h-1.648V5.675l-4.294 5.738h-1.324V3.047h1.648v5.868zM250.176 4.473h-2.731v6.94h-1.648v-6.94h-2.731V3.047h7.11v1.426zM253.137 11.495c-.089 0-.185-.008-.289-.023a2.751 2.751 0 01-.662-.141 1.285 1.285 0 01-.276-.142l.216-1.343c.088.047.209.102.361.165.16.055.325.082.493.082a.98.98 0 00.602-.189c.176-.133.328-.369.457-.706l-3.14-6.15h1.792l2.094 4.512 1.948-4.513h1.744L255.47 9.41c-.176.377-.349.699-.517.966-.168.259-.345.475-.529.648a1.745 1.745 0 01-.578.365 2.2 2.2 0 01-.709.106zM266.233 4.473h-2.73v6.94h-1.648v-6.94h-2.731V3.047h7.109v1.426zM205.723 15.811v8.366h-1.648v-3.57h-3.874v3.57h-1.66V15.81h1.66v3.382h3.874V15.81h1.648zM213.986 22.751v1.426h-5.93V15.81h5.822v1.426h-4.162v2.015h3.597v1.32h-3.597v2.18h4.27zM215.797 15.811h7.037v8.366h-1.648v-6.94h-3.741v6.94h-1.648V15.81zM225.182 24.177V15.81h3.621c.393 0 .754.083 1.083.248.337.157.625.369.866.636.241.26.429.558.565.895.137.33.205.664.205 1.002a2.883 2.883 0 01-.734 1.92c-.232.26-.513.468-.842.625a2.48 2.48 0 01-1.083.236h-2.02v2.804h-1.661zm1.661-4.23h1.924a.94.94 0 00.758-.365c.209-.244.313-.574.313-.99 0-.212-.032-.4-.096-.566a1.389 1.389 0 00-.253-.436.938.938 0 00-.373-.259.996.996 0 00-.421-.094h-1.852v2.71zM239.124 22.751v1.426h-5.93V15.81h5.822v1.426h-4.162v2.015h3.596v1.32h-3.596v2.18h4.27zM240.935 24.177V15.81h3.62c.393 0 .754.083 1.083.248.337.157.625.369.866.636.241.26.429.558.565.895.137.33.205.664.205 1.002a2.883 2.883 0 01-.734 1.92c-.232.26-.513.468-.842.625a2.48 2.48 0 01-1.083.236h-2.02v2.804h-1.66zm1.66-4.23h1.924a.94.94 0 00.758-.365c.209-.244.313-.574.313-.99 0-.212-.032-.4-.096-.566a1.389 1.389 0 00-.253-.436.938.938 0 00-.373-.259.996.996 0 00-.421-.094h-1.852v2.71zM248.946 15.811h1.648v2.946h1.636c.433 0 .83.059 1.19.177.369.117.686.29.951.518.264.228.469.51.613.848.145.33.217.711.217 1.143 0 .44-.072.829-.217 1.167a2.397 2.397 0 01-.613.86 2.74 2.74 0 01-.926.53 3.629 3.629 0 01-1.155.177h-3.344V15.81zm7.289 8.366v-8.354h1.66v8.354h-1.66zm-5.641-1.379h1.539c.465 0 .814-.121 1.047-.365.232-.243.349-.577.349-1.001 0-.401-.121-.727-.361-.978-.241-.26-.586-.39-1.035-.39h-1.539v2.734zM266.983 22.02c0 .354-.073.664-.217.931-.144.268-.345.491-.601.672a2.74 2.74 0 01-.879.412 3.82 3.82 0 01-1.058.142h-4.126V15.81h4.571c.297 0 .565.063.806.189.24.126.445.29.613.495.169.196.297.424.385.683.097.252.145.507.145.766 0 .408-.105.793-.313 1.155a1.903 1.903 0 01-.914.79c.489.14.874.396 1.154.765.289.361.434.817.434 1.367zm-1.673-.306c0-.149-.028-.29-.084-.424a1.088 1.088 0 00-.204-.365.91.91 0 00-.313-.236.844.844 0 00-.397-.094h-2.55v2.203h2.466c.152 0 .293-.027.421-.082.136-.055.252-.13.349-.224.096-.102.172-.22.228-.354.056-.133.084-.274.084-.424zm-3.548-4.512v2.109h2.213a.976.976 0 00.71-.283c.2-.189.301-.448.301-.778 0-.322-.093-.577-.277-.765a.868.868 0 00-.662-.283h-2.285zM276.096 15.811v8.366h-1.648v-3.57h-3.873v3.57h-1.66V15.81h1.66v3.382h3.873V15.81h1.648zM282.05 24.236a4.046 4.046 0 01-1.708-.354 4.404 4.404 0 01-1.311-.954 4.467 4.467 0 01-.842-1.367 4.264 4.264 0 01-.301-1.567c0-.558.105-1.092.313-1.602a4.57 4.57 0 01.878-1.355 4.184 4.184 0 011.335-.931 3.963 3.963 0 011.672-.354c.618 0 1.179.126 1.685.377.513.244.95.566 1.311.967.361.4.641.856.842 1.366a4.232 4.232 0 01-.012 3.158c-.209.503-.497.95-.866 1.343-.369.385-.81.695-1.324.931a4.072 4.072 0 01-1.672.342zm-2.478-4.242c0 .361.057.711.169 1.049.112.338.272.636.481.895.216.26.477.468.782.625.313.157.665.235 1.058.235.401 0 .754-.078 1.059-.235.313-.165.573-.381.782-.648.216-.267.377-.566.481-.896.112-.338.168-.68.168-1.025 0-.361-.06-.71-.18-1.049a2.724 2.724 0 00-.493-.895 2.212 2.212 0 00-.782-.613 2.227 2.227 0 00-1.035-.235c-.401 0-.757.082-1.07.247-.313.157-.574.37-.782.636-.209.26-.369.558-.481.896-.104.33-.157.667-.157 1.013zM293.212 17.237h-3.561v6.94h-1.648V15.81h5.209v1.426zM297.826 24.236a4.043 4.043 0 01-1.708-.354 4.39 4.39 0 01-1.311-.954 4.448 4.448 0 01-.842-1.367 4.243 4.243 0 01.012-3.17 4.55 4.55 0 01.878-1.354 4.184 4.184 0 011.335-.931 3.96 3.96 0 011.672-.354c.617 0 1.179.126 1.684.377.513.244.95.566 1.311.967.361.4.642.856.842 1.366a4.213 4.213 0 01-.012 3.158c-.208.503-.497.95-.866 1.343-.369.385-.81.695-1.323.931a4.075 4.075 0 01-1.672.342zm-2.478-4.242c0 .361.056.711.168 1.049.113.338.273.636.481.895.217.26.478.468.782.625.313.157.666.235 1.059.235.401 0 .754-.078 1.058-.235.313-.165.574-.381.782-.648.217-.267.377-.566.482-.896.112-.338.168-.68.168-1.025 0-.361-.06-.71-.18-1.049a2.726 2.726 0 00-.494-.895 2.203 2.203 0 00-.782-.613 2.22 2.22 0 00-1.034-.235c-.401 0-.758.082-1.071.247-.312.157-.573.37-.782.636-.208.26-.368.558-.481.896a3.35 3.35 0 00-.156 1.013zM202.162 37a4.045 4.045 0 01-1.708-.353 4.405 4.405 0 01-1.311-.955 4.447 4.447 0 01-.842-1.367 4.243 4.243 0 01.012-3.17 4.55 4.55 0 01.878-1.354 4.182 4.182 0 011.335-.93 3.958 3.958 0 011.672-.354c.618 0 1.179.125 1.684.377a4.11 4.11 0 011.311.966c.361.4.642.856.842 1.367a4.213 4.213 0 01-.012 3.157c-.208.503-.497.95-.866 1.343-.369.385-.81.696-1.323.931a4.072 4.072 0 01-1.672.342zm-2.478-4.242c0 .362.056.711.168 1.049.113.338.273.636.482.895.216.26.477.468.782.625a2.32 2.32 0 001.058.236c.401 0 .754-.079 1.059-.236a2.41 2.41 0 00.782-.648c.216-.267.376-.566.481-.896.112-.337.168-.679.168-1.025 0-.361-.06-.71-.18-1.048a2.726 2.726 0 00-.494-.896 2.206 2.206 0 00-.781-.612 2.227 2.227 0 00-1.035-.236c-.401 0-.758.082-1.07.247-.313.157-.574.37-.782.637-.209.259-.369.557-.482.895a3.35 3.35 0 00-.156 1.013zM208.115 28.576h6.243V30h-4.595v1.92h2.357c.417 0 .794.056 1.131.166.345.11.638.27.878.483.249.212.437.471.566.777.136.307.204.66.204 1.06 0 .818-.248 1.446-.746 1.886-.489.432-1.146.648-1.972.648h-4.066v-8.365zm3.909 6.986c.393 0 .69-.102.89-.306.201-.212.301-.499.301-.86 0-.346-.1-.624-.301-.837-.2-.212-.497-.318-.89-.318h-2.261v2.322h2.261zM216.631 36.941v-8.365h3.621c.393 0 .754.082 1.082.247.337.157.626.37.866.636.241.26.43.558.566.896.136.33.204.663.204 1.001a2.872 2.872 0 01-.733 1.92c-.233.26-.514.468-.842.625a2.48 2.48 0 01-1.083.236h-2.021v2.804h-1.66zm1.66-4.23h1.925a.943.943 0 00.758-.365c.208-.243.312-.573.312-.99 0-.212-.032-.4-.096-.565a1.354 1.354 0 00-.253-.436.935.935 0 00-.372-.26 1 1 0 00-.421-.094h-1.853v2.71zM226.496 28.576h1.467l3.248 8.365h-1.708l-.794-2.085h-2.983l-.782 2.085h-1.708l3.26-8.365zm1.912 5.137l-1.179-3.288-1.227 3.288h2.406zM232.136 29.648c.345-.377.741-.66 1.191-.849.449-.196.986-.294 1.611-.294.818 0 1.464.177 1.937.53.481.354.722.872.722 1.555 0 .425-.108.81-.325 1.155-.208.338-.541.577-.998.719.529.102.938.334 1.227.695.288.353.433.793.433 1.32 0 .392-.08.746-.241 1.06a2.35 2.35 0 01-.637.79 3.044 3.044 0 01-.987.494 4.095 4.095 0 01-1.227.177c-.617 0-1.163-.098-1.636-.295a3.701 3.701 0 01-1.263-.907l.963-1.13c.24.274.509.49.806.647.304.157.669.236 1.094.236.425 0 .774-.11 1.047-.33.272-.22.409-.526.409-.92 0-.36-.145-.659-.433-.895-.281-.235-.71-.353-1.287-.353h-.891V31.85h.794c.514 0 .906-.09 1.179-.27a.905.905 0 00.409-.79c0-.299-.104-.527-.313-.684-.2-.157-.489-.235-.866-.235s-.713.07-1.01.212a2.352 2.352 0 00-.77.577l-.938-1.013zM243.369 37a4.042 4.042 0 01-1.708-.353 4.38 4.38 0 01-1.311-.955 4.469 4.469 0 01-.843-1.367 4.262 4.262 0 01.013-3.17 4.55 4.55 0 01.878-1.354 4.182 4.182 0 011.335-.93 3.955 3.955 0 011.672-.354 3.73 3.73 0 011.684.377c.513.243.95.565 1.311.966.361.4.642.856.842 1.367a4.213 4.213 0 01-.012 3.157c-.208.503-.497.95-.866 1.343-.369.385-.81.696-1.323.931a4.075 4.075 0 01-1.672.342zm-2.478-4.242c0 .362.056.711.168 1.049.112.338.273.636.481.895.217.26.478.468.782.625.313.157.666.236 1.059.236.401 0 .754-.079 1.058-.236a2.39 2.39 0 00.782-.648c.217-.267.377-.566.481-.896a3.21 3.21 0 00.169-1.025c0-.361-.06-.71-.181-1.048a2.706 2.706 0 00-.493-.896 2.2 2.2 0 00-.782-.612 2.22 2.22 0 00-1.034-.236c-.401 0-.758.082-1.071.247-.313.157-.573.37-.782.637a2.85 2.85 0 00-.481.895 3.35 3.35 0 00-.156 1.013zM256.07 34.785c0 .353-.072.664-.217.93a1.935 1.935 0 01-.601.672c-.249.181-.541.318-.878.413a3.828 3.828 0 01-1.059.141h-4.126v-8.365h4.571c.297 0 .566.062.806.188.241.126.445.29.614.495.168.196.296.424.385.683.096.252.144.507.144.766 0 .409-.104.794-.313 1.155a1.898 1.898 0 01-.914.79c.489.14.874.396 1.155.765.289.361.433.817.433 1.367zm-1.672-.306c0-.15-.028-.291-.084-.425a1.107 1.107 0 00-.205-.365.9.9 0 00-.313-.236.842.842 0 00-.397-.094h-2.55v2.203h2.466c.153 0 .293-.027.421-.082.137-.055.253-.13.349-.224.096-.102.172-.22.229-.353.056-.134.084-.275.084-.424zm-3.549-4.513v2.109h2.214c.28 0 .517-.094.709-.283.201-.188.301-.448.301-.777 0-.323-.092-.578-.277-.766a.868.868 0 00-.661-.283h-2.286zM260.22 28.576h1.467l3.248 8.365h-1.708l-.794-2.085h-2.983l-.782 2.085h-1.708l3.26-8.365zm1.912 5.137l-1.178-3.288-1.227 3.288h2.405zM273.571 28.576v8.365h-1.648v-3.57h-3.874v3.57h-1.66v-8.365h1.66v3.381h3.874v-3.381h1.648zM277.552 34.443l4.355-5.867h1.263v8.365h-1.648v-5.738l-4.295 5.738h-1.323v-8.365h1.648v5.867zM289.94 36.941v-3.099h-1.36l-1.924 3.1h-1.829l2.093-3.3a2.577 2.577 0 01-1.624-2.439c0-.353.069-.687.205-1.001a2.682 2.682 0 011.419-1.414 2.801 2.801 0 011.095-.212h3.573v8.365h-1.648zm0-6.975h-1.745c-.16 0-.312.031-.457.094a1.186 1.186 0 00-.673.636c-.064.15-.096.319-.096.507 0 .377.112.68.336.907.233.228.518.342.854.342h1.781v-2.486z" fill="#5286EC"/><path fill-rule="evenodd" clip-rule="evenodd" d="M188 40V0h2v40h-2z" fill="#E1E4EB"/><path d="M54.133 20.03h-3.96l-3.3 5.7 3.3 5.7h3.96l-3.3-5.7 3.3-5.7zm6 0h-3.96l-3.3 5.7 3.3 5.7h3.96l-3.3-5.7 3.3-5.7zM77.817 14h-15.6v4.62h5.4V35h4.8V18.62h5.4V14zM92.818 35h4.8V14h-3.6l-8.1 11.4V14h-4.8v21h3.6l8.1-11.4V35zM112.436 35.42c3.84 0 7.2-1.89 9-4.86l-4.14-2.4c-.9 1.62-2.73 2.58-4.86 2.58-3.72 0-6.12-2.49-6.12-6.24s2.4-6.24 6.12-6.24c2.13 0 3.93.96 4.86 2.58l4.14-2.4c-1.83-2.97-5.19-4.86-9-4.86-6.33 0-10.92 4.74-10.92 10.92s4.59 10.92 10.92 10.92zM132.986 21.8h-3.3v-3.18h8.7V14h-13.5v21h8.1c4.29 0 7.2-2.61 7.2-6.6 0-3.99-2.91-6.6-7.2-6.6zm0 8.7h-3.3v-4.2h3.3c1.32 0 2.4.57 2.4 2.1 0 1.53-1.08 2.1-2.4 2.1zM155.334 35h4.8V14h-3.6l-8.1 11.4V14h-4.8v21h3.6l8.1-11.4V35zM168.892 20.03h-3.96l3.3 5.7-3.3 5.7h3.96l3.3-5.7-3.3-5.7zm6 0h-3.96l3.3 5.7-3.3 5.7h3.96l3.3-5.7-3.3-5.7zM50.714 5.125l-1.076 2.677-1.199-2.677h-1.4L49 9.334c-.236.428-.586.665-1.225.603v1.313c1.147.061 2.03-.481 2.573-1.803l1.767-4.322h-1.4zM56.755 5.125V7.47H54.83V5.125h-1.4v6.125h1.4V8.817h1.925v2.433h1.4V5.125h-1.4zM63.319 11.25h1.4V5.125h-1.05L61.306 8.45V5.125h-1.4v6.125h1.05l2.363-3.325v3.325zM70.266 8.074c.332-.29.533-.692.533-1.2 0-1.058-.866-1.75-1.933-1.75h-2.398v6.126h2.573c1.093 0 1.977-.709 1.977-1.794 0-.621-.297-1.094-.752-1.382zm-1.4-1.637c.323 0 .533.228.533.543 0 .315-.218.542-.533.542h-.998V6.437h.998zm.175 3.5h-1.173V8.765h1.173c.35 0 .577.245.577.586 0 .341-.227.586-.577.586zM73.815 9.902V8.817h2.187v-1.33h-2.187V6.472h2.406V5.125h-3.806v6.125h3.85V9.902h-2.45zM80.073 5.125h-2.318v6.125h1.4V9.325h.918c1.208 0 2.144-.936 2.144-2.1 0-1.164-.936-2.1-2.144-2.1zm0 2.887h-.918V6.437h.918c.43 0 .744.342.744.788s-.315.787-.744.787zM86.496 11.372c1.12 0 2.1-.55 2.625-1.417l-1.208-.7c-.263.472-.796.752-1.417.752-1.085 0-1.785-.726-1.785-1.82 0-1.093.7-1.82 1.785-1.82.62 0 1.146.28 1.417.753l1.208-.7c-.534-.866-1.514-1.418-2.625-1.418-1.847 0-3.185 1.383-3.185 3.185 0 1.803 1.338 3.185 3.184 3.185zM93.89 11.25h1.4V5.125h-1.05L91.876 8.45V5.125h-1.4v6.125h1.05l2.362-3.325v3.325zM101.151 5.125h-4.55v1.347h1.575v4.778h1.4V6.472h1.575V5.125zM103.864 9.902V8.817h2.187v-1.33h-2.187V6.472h2.406V5.125h-3.806v6.125h3.85V9.902h-2.45zM111.916 5.125h-4.55v1.347h1.575v4.778h1.4V6.472h1.575V5.125zM119.442 5.125l-1.077 2.677-1.198-2.677h-1.4l1.96 4.209c-.237.428-.587.665-1.225.603v1.313c1.146.061 2.03-.481 2.572-1.803l1.768-4.322h-1.4zM126.795 5.125h-4.638v6.125h1.4V6.472h1.838v4.778h1.4V5.125zM130.867 5.125h-2.319v6.125h1.4V9.325h.919c1.207 0 2.144-.936 2.144-2.1 0-1.164-.937-2.1-2.144-2.1zm0 2.887h-.919V6.437h.919c.429 0 .744.342.744.788s-.315.787-.744.787zM137.688 11.25h1.531l-2.083-6.125h-1.785l-2.082 6.125h1.531l.306-.963h2.275l.307.963zm-2.162-2.275l.718-2.249.717 2.249h-1.435zM144.239 8.074c.332-.29.533-.692.533-1.2 0-1.058-.866-1.75-1.933-1.75h-2.398v6.126h2.573c1.093 0 1.977-.709 1.977-1.794 0-.621-.297-1.094-.752-1.382zm-1.4-1.637c.323 0 .533.228.533.543 0 .315-.218.542-.533.542h-.998V6.437h.998zm.175 3.5h-1.173V8.765h1.173c.35 0 .577.245.577.586 0 .341-.227.586-.577.586zM145.865 11.25c1.129.122 2.415-.298 2.415-2.485V6.472h1.435v4.778h1.4V5.125h-4.235v3.692c0 1.024-.385 1.217-1.015 1.12v1.313zM154.264 9.902V8.817h2.188v-1.33h-2.188V6.472h2.406V5.125h-3.806v6.125h3.85V9.902h-2.45zM161.529 5.125V7.47h-1.925V5.125h-1.4v6.125h1.4V8.817h1.925v2.433h1.4V5.125h-1.4zM168.093 11.25h1.4V5.125h-1.05L166.08 8.45V5.125h-1.4v6.125h1.05l2.363-3.325v3.325zM175.661 5.125h-2.45c-1.164 0-2.1.936-2.1 2.1 0 .796.516 1.522 1.26 1.837l-1.435 2.188h1.575l1.304-2.013h.446v2.013h1.4V5.125zm-2.45 2.887c-.385 0-.7-.34-.7-.787 0-.446.315-.788.7-.788h1.05v1.575h-1.05z" fill="#4B4D52"/><path d="M19 19.81a13.64 13.64 0 01-3.33-1.75l-.67-.64v2a3.28 3.28 0 001.84 2.43c2.7 1.15 5.13 2 6.79 4.76v-2.39a3.37 3.37 0 00-1-2A10.81 10.81 0 0019 19.81zm14.5 3.39a1.62 1.62 0 10-1.58-1.62 1.6 1.6 0 001.58 1.62zM8.11 5.9H4.94v10.73a3.76 3.76 0 00.92 2.3 5.28 5.28 0 002.3 1.2 11 11 0 002.55.16V17.5a2.859 2.859 0 01-2.23-.65 1.84 1.84 0 01-.39-1.31v-3.69h2.6v-3H8.11V5.9zM27.78 34c1.72 0 3.48-.7 3.48-2.42V25c0-2.69-3.81-1.81-3.85-2.07v-2.69h-3.12l.05 11.42c.01 1.52 1.83 2.34 3.44 2.34zm-.32-7.8a.37.37 0 11.73 0v4.7a.365.365 0 01-.73 0v-4.7zM0 0v24l16 16h24V16L24 0H0zm38.4 38.4H16.66L1.6 23.34V1.6h21.74L38.4 16.66V38.4zM20.49 6.11a4.22 4.22 0 00-5.49 4.2v2.5a8.69 8.69 0 002.85 2.06v-5.2c0-.93.09-2.25 1.35-2.27 1.26-.02 1.31 1.69 1.31 2.32v2.87h3.12v-2.28a3.62 3.62 0 00-.47-1.91 4.74 4.74 0 00-2.67-2.29zm11.44 28h3.12V24h-3.11l-.01 10.11zM11.24 20.29h3.12V10.15h-3.12v10.14zM12.77 6.2a1.63 1.63 0 101.59 1.63 1.61 1.61 0 00-1.59-1.63zm8 18.57v6.15c0 .81-.46 1.76-1.35 1.77-.89.01-1.3-.93-1.3-1.61v-4.63H15v3.24A4.73 4.73 0 0016.32 33a4.74 4.74 0 003 1.11 3.87 3.87 0 002.41-.59 4.451 4.451 0 001.85-3.79v-1.91a8.059 8.059 0 00-1.46-2 5.668 5.668 0 00-1.37-1.05h.02zM19 16.1a13.64 13.64 0 01-3.33-1.75l-.67-.64v2a3.28 3.28 0 001.84 2.43c2.7 1.15 5.13 2 6.79 4.76v-2.4a3.37 3.37 0 00-1-2A10.81 10.81 0 0019 16.1z" fill="#5286EC"/></symbol><view id="icon__shevron_down-view" viewBox="0 0 24 24"/>
<view id="icon__cross-view" viewBox="0 24 24 24"/>
<view id="icon__shevron_right-view" viewBox="0 48 24 24"/>

<use xlink:href="#icon__shevron_down" style="fill:#4b4d52" width="24" height="24" x="0" y="0" id="shevron_down"/>
<use xlink:href="#icon__cross" style="fill:#8d9199" width="24" height="24" x="0" y="24" id="cross"/>
<use xlink:href="#icon__shevron_right" style="fill:#4b4d52" width="24" height="24" x="0" y="48" id="shevron_right"/></svg>